<!-- icon666.com - MILLIONS vector ICONS FREE --><svg id="Layer_1" enable-background="new 0 0 511.992 511.992" viewBox="0 0 511.992 511.992" xmlns="http://www.w3.org/2000/svg"><path d="m359.371 0h-26.738c-32.012 0-60.245 16.502-76.637 41.445-16.392-24.943-44.625-41.445-76.637-41.445h-26.738c-50.528 0-91.637 41.108-91.637 91.637v420.355h390.023v-420.355c.001-50.529-41.108-91.637-91.636-91.637zm-161.706 273.097c-10.752 12.37-16.673 28.208-16.673 44.596v4.326l-30.004-6.429v-58.89h57.662c-1.579 4.283-3.928 8.28-6.971 11.78zm13.329-46.398h-60.006v-49.013l60.006 16.668zm-60.006 119.571 30.004 6.429v65.02l-30.004 6.429zm60.004 12.858 30.004 6.429v39.304l-30.004 6.429zm60.004 6.429 30.004-6.429v52.163l-30.004-6.429zm43.33-92.461-4.014-4.617c-3.042-3.5-5.392-7.497-6.971-11.78h57.662v58.89l-30.003 6.43v-4.326c0-16.388-5.921-32.226-16.674-44.597zm46.678-46.397h-60.006v-32.344l60.006-16.668zm-30.004 126 30.004-6.429v77.879l-30.004-6.43zm30.004-206.148-90.006 25.001v72.013c0 16.39 5.922 32.228 16.674 44.597l4.013 4.616c6.007 6.911 9.315 15.76 9.315 24.915v10.755l-45.004 9.644-45.004-9.644v-10.755c0-9.155 3.309-18.004 9.314-24.914l4.014-4.617c10.752-12.369 16.674-28.207 16.674-44.597v-72.013l-90.006-25.001v-18.719c0-20.858 16.97-37.828 37.828-37.828h14.352c20.858 0 37.828 16.97 37.828 37.828h30c0-20.858 16.97-37.828 37.828-37.828h14.352c20.858 0 37.828 16.97 37.828 37.828zm-270.02 335.441v-390.355c0-33.987 27.651-61.637 61.637-61.637h26.738c25.94 0 48.189 16.108 57.27 38.847-9.88-5.627-21.302-8.843-33.462-8.843h-14.352c-37.4 0-67.828 30.428-67.828 67.828v354.16zm60.004 0v-27.163l105.008-22.502 105.008 22.502v27.163zm270.02 0h-30.004v-354.16c0-37.4-30.428-67.828-67.828-67.828h-14.352c-12.159 0-23.582 3.216-33.462 8.843 9.081-22.739 31.33-38.847 57.271-38.847h26.738c33.986 0 61.637 27.65 61.637 61.637z"></path></svg>